# Blender v2.92.0 OBJ File: ''
# www.blender.org
mtllib bishop2.mtl
o archbishop_01
v -3.226826 53.055138 5.156674
v -4.773829 56.485100 3.844066
v -3.203387 52.945736 4.781644
v 2.441606 57.770363 -6.461467
v -0.000001 57.535965 -6.594290
v -0.000001 59.778339 -5.762192
v 1.996257 59.875999 -5.637180
v 4.348012 58.364166 -5.883296
v 3.484660 60.196350 -5.215271
v 5.617647 59.332993 -4.922278
v 4.445676 60.438541 -4.390985
v 6.566944 60.336979 -3.140883
v 5.129326 60.692482 -3.172135
v 6.891191 60.133842 -1.296982
v 5.344188 60.461990 -1.273542
v 5.215271 60.016640 0.281273
v 6.824779 59.637707 0.535199
v 6.355989 58.250877 2.320503
v 0.000000 60.563564 -5.176206
v 1.711077 60.590912 -5.086354
v 2.789290 60.852646 -4.590220
v 3.422155 61.032356 -4.066740
v 3.734680 61.180801 -2.847890
v 3.844065 60.887794 -1.273542
v 3.656549 60.450272 0.195328
v 3.351837 59.836941 1.011802
v 4.863679 59.157196 1.558721
v 3.644830 57.875835 2.836169
v 4.773829 56.485100 3.844065
v 2.902582 55.320946 4.328480
v -1.121185 56.465569 4.008142
v -0.843819 57.680515 3.074472
v -1.777489 58.036011 2.715067
v 0.000000 57.559410 3.152603
v 0.000000 56.328838 4.090180
v 1.121186 56.465569 4.008142
v 1.453244 54.840435 4.601940
v 2.242371 56.793716 3.777654
v 1.777491 58.036015 2.715066
v 2.715066 58.797794 2.050950
v 0.843819 57.680515 3.074472
v 3.226827 53.055141 5.156673
v 1.613414 52.508209 5.367627
v 0.000000 54.621670 4.738669
v -1.453244 54.840435 4.601941
v -2.242371 56.793720 3.777654
v -3.644830 57.875832 2.836170
v -2.715066 58.797791 2.050949
v -4.863679 59.157196 1.558722
v -3.351837 59.836941 1.011803
v -5.215271 60.016632 0.281272
v -3.656549 60.450272 0.195329
v -5.344189 60.461987 -1.273542
v -3.844065 60.887794 -1.273542
v -5.129327 60.692478 -3.172135
v -1.613413 52.508209 5.367628
v 0.000000 52.312885 5.441853
v -1.996258 59.875996 -5.637181
v -2.441607 57.770363 -6.461468
v -4.348013 58.364162 -5.883296
v -3.484661 60.196342 -5.215272
v -5.617648 59.332989 -4.922278
v -4.445677 60.438538 -4.390985
v -6.566945 60.336975 -3.140883
v -6.891190 60.133839 -1.296982
v -6.824779 59.637703 0.535201
v -6.355989 58.250881 2.320503
v -2.902581 55.320938 4.328481
v -3.734681 61.180801 -2.847890
v -3.422155 61.032349 -4.066741
v -2.789291 60.852638 -4.590220
v -1.711078 60.590912 -5.086354
v 3.203388 52.945740 4.781643
v 0.000000 52.234753 5.059009
v 1.601694 52.414452 4.988689
v -1.601693 52.414455 4.988689
v -1.672012 60.348701 -4.785549
v 0.000000 60.329163 -4.863680
v -2.722880 60.563560 -4.336294
v -3.285426 60.704193 -3.906571
v -3.601858 60.817482 -2.812731
v -3.711241 60.524494 -1.328234
v -3.515913 60.278381 0.117197
v -3.246360 59.583008 0.867259
v -2.582242 58.563396 1.816555
v -1.746237 57.789894 2.414261
v -0.828193 57.446117 2.761946
v 0.000000 57.340645 2.828358
v 0.828193 57.446117 2.761946
v 1.746238 57.789902 2.414261
v 2.582243 58.563400 1.816556
v 3.246360 59.583008 0.867259
v 3.515913 60.278385 0.117197
v 3.711241 60.524498 -1.328234
v 3.601857 60.817490 -2.812731
v 3.285425 60.704201 -3.906570
v 2.722879 60.563568 -4.336293
v 1.672011 60.348701 -4.785549
vt 0.409600 0.053100
vt 0.348700 0.172700
vt 0.398400 0.045600
vt 0.962200 0.544500
vt 0.956500 0.630700
vt 0.876400 0.608300
vt 0.890200 0.540500
vt 0.954600 0.473200
vt 0.889600 0.486600
vt 0.932000 0.419000
vt 0.878200 0.444300
vt 0.884200 0.359700
vt 0.854100 0.402100
vt 0.844700 0.313400
vt 0.808000 0.353800
vt 0.766000 0.317400
vt 0.802600 0.271400
vt 0.742400 0.218200
vt 0.844200 0.599200
vt 0.857000 0.540500
vt 0.851800 0.497800
vt 0.842800 0.469000
vt 0.813900 0.434900
vt 0.772900 0.394800
vt 0.729400 0.359700
vt 0.687300 0.328900
vt 0.715500 0.277000
vt 0.652200 0.237100
vt 0.682300 0.173200
vt 0.614900 0.138300
vt 0.475500 0.186400
vt 0.481000 0.241200
vt 0.442800 0.255800
vt 0.515500 0.236600
vt 0.515600 0.180800
vt 0.555700 0.186700
vt 0.564600 0.123900
vt 0.596500 0.196000
vt 0.588200 0.256300
vt 0.631200 0.287100
vt 0.550000 0.241500
vt 0.621900 0.053500
vt 0.568500 0.037500
vt 0.515700 0.115800
vt 0.466700 0.123700
vt 0.434600 0.195600
vt 0.378800 0.236600
vt 0.395900 0.282400
vt 0.312400 0.271000
vt 0.344400 0.315800
vt 0.263900 0.306300
vt 0.298000 0.350500
vt 0.219900 0.340200
vt 0.252900 0.383000
vt 0.171500 0.386200
vt 0.463100 0.037300
vt 0.515800 0.031300
vt 0.129500 0.523000
vt 0.049300 0.525700
vt 0.059800 0.454700
vt 0.132300 0.469100
vt 0.092800 0.399700
vt 0.145400 0.427300
vt 0.143300 0.342500
vt 0.185300 0.297900
vt 0.230100 0.258100
vt 0.278900 0.214400
vt 0.416300 0.137900
vt 0.210100 0.420900
vt 0.179700 0.453500
vt 0.169600 0.481900
vt 0.162700 0.524300
vt 0.140600 0.591300
vt 0.059700 0.610400
vt 0.173200 0.583500
vt 0.633100 0.046000
vt 0.515500 0.017400
vt 0.571200 0.024600
vt 0.628000 0.040900
vt 0.516200 0.017400
vt 0.460500 0.024300
vt 0.403600 0.040500
vt 0.176500 0.523800
vt 0.186400 0.581000
vt 0.182600 0.484600
vt 0.191400 0.460600
vt 0.219400 0.430100
vt 0.261800 0.393700
vt 0.302500 0.357400
vt 0.352700 0.322600
vt 0.405000 0.291600
vt 0.449500 0.268400
vt 0.485800 0.253900
vt 0.515400 0.250800
vt 0.545100 0.254300
vt 0.581500 0.269000
vt 0.622200 0.296400
vt 0.680100 0.336900
vt 0.724600 0.366300
vt 0.763500 0.405000
vt 0.804100 0.443700
vt 0.830800 0.475600
vt 0.838700 0.500000
vt 0.843200 0.539500
vt 0.831100 0.596200
vn -0.9680 -0.2212 0.1189
vn 0.0710 0.3299 -0.9413
vn -0.0000 0.3220 -0.9467
vn 0.0000 0.3870 -0.9221
vn 0.0883 0.4008 -0.9119
vn 0.1939 0.3461 -0.9179
vn 0.2305 0.4762 -0.8486
vn 0.3544 0.4233 -0.8338
vn 0.3904 0.5824 -0.7130
vn 0.4276 0.7821 -0.4533
vn 0.4154 0.8173 -0.3993
vn 0.4063 0.9121 0.0544
vn 0.4527 0.8884 0.0763
vn 0.3626 0.7521 0.5502
vn 0.2682 0.7501 0.6045
vn 0.1289 0.4079 0.9039
vn 0.0000 0.4477 -0.8942
vn 0.1239 0.4654 -0.8764
vn 0.2239 0.5488 -0.8054
vn 0.4900 0.6363 -0.5958
vn 0.5822 0.7786 -0.2341
vn 0.5361 0.8358 0.1186
vn 0.4199 0.7098 0.5656
vn 0.2084 0.4812 0.8514
vn 0.1984 0.4817 0.8536
vn 0.0566 0.3062 0.9503
vn -0.0604 0.1955 0.9788
vn 0.0495 0.0646 0.9967
vn -0.0321 0.1585 0.9868
vn -0.0490 0.2819 0.9582
vn -0.0212 0.3209 0.9469
vn 0.0000 0.2740 0.9617
vn 0.0000 0.1435 0.9897
vn 0.0321 0.1585 0.9868
vn 0.0544 0.0398 0.9977
vn 0.1179 0.1936 0.9740
vn 0.0212 0.3209 0.9469
vn 0.0592 0.3617 0.9304
vn 0.0490 0.2819 0.9582
vn 0.0305 0.0260 0.9992
vn 0.0191 0.0117 0.9997
vn 0.0000 0.0295 0.9996
vn -0.0544 0.0398 0.9977
vn -0.1179 0.1936 0.9740
vn -0.0566 0.3062 0.9503
vn -0.0592 0.3617 0.9304
vn -0.1984 0.4817 0.8536
vn -0.2084 0.4812 0.8514
vn -0.3626 0.7521 0.5502
vn -0.4199 0.7098 0.5656
vn -0.4527 0.8884 0.0764
vn -0.5361 0.8358 0.1185
vn -0.4155 0.8173 -0.3993
vn -0.0305 0.0260 0.9992
vn -0.0191 0.0117 0.9997
vn -0.0000 0.0049 1.0000
vn -0.0883 0.4008 -0.9119
vn -0.0710 0.3299 -0.9413
vn -0.1939 0.3461 -0.9179
vn -0.2305 0.4762 -0.8486
vn -0.3544 0.4233 -0.8338
vn -0.3904 0.5824 -0.7130
vn -0.4276 0.7821 -0.4533
vn -0.4063 0.9121 0.0544
vn -0.2682 0.7501 0.6045
vn -0.1289 0.4079 0.9039
vn 0.0604 0.1955 0.9788
vn -0.0495 0.0646 0.9967
vn -0.5822 0.7786 -0.2341
vn -0.4900 0.6363 -0.5958
vn -0.2239 0.5488 -0.8054
vn -0.1239 0.4654 -0.8764
vn 0.9680 -0.2212 0.1189
vn 0.3550 -0.7680 0.5331
vn 0.0001 -0.8437 0.5368
vn -0.0000 -0.8385 0.5449
vn 0.3092 -0.7798 0.5444
vn 0.4781 -0.7075 0.5204
vn 0.4781 -0.7047 0.5242
vn 0.3549 -0.7680 0.5331
vn -0.3550 -0.7680 0.5330
vn -0.3092 -0.7798 0.5444
vn -0.4781 -0.7075 0.5205
vn -0.4781 -0.7047 0.5242
vn 0.3300 0.5277 0.7827
vn -0.0000 0.5834 0.8122
vn -0.0000 0.5751 0.8181
vn 0.3910 0.4999 0.7728
vn 0.6811 0.3373 0.6499
vn 0.7184 0.3007 0.6273
vn 0.8661 0.2514 0.4321
vn 0.9297 0.2248 0.2916
vn 0.9776 0.1764 0.1144
vn 0.9809 0.1663 0.1010
vn 0.9843 0.1760 -0.0128
vn 0.9812 0.1920 -0.0200
vn 0.9511 0.3021 0.0639
vn 0.9465 0.3225 0.0124
vn 0.9504 0.2584 -0.1730
vn 0.9632 0.2359 -0.1290
vn 0.8812 0.3768 -0.2857
vn 0.9263 0.3248 -0.1909
vn 0.6312 0.4676 -0.6188
vn 0.7028 0.4243 -0.5709
vn 0.3943 0.5437 -0.7409
vn 0.3357 0.5640 -0.7545
vn 0.0000 0.6023 -0.7983
vn -0.0000 0.6114 -0.7914
vn -0.3357 0.5640 -0.7545
vn -0.3943 0.5437 -0.7409
vn -0.6312 0.4676 -0.6188
vn -0.7028 0.4243 -0.5709
vn -0.9263 0.3248 -0.1909
vn -0.8812 0.3768 -0.2856
vn -0.9632 0.2359 -0.1290
vn -0.9504 0.2584 -0.1730
vn -0.9466 0.3222 0.0128
vn -0.9511 0.3021 0.0639
vn -0.9812 0.1920 -0.0200
vn -0.9843 0.1760 -0.0128
vn -0.9809 0.1663 0.1011
vn -0.9776 0.1764 0.1144
vn -0.9297 0.2248 0.2916
vn -0.8661 0.2514 0.4321
vn -0.7184 0.3007 0.6273
vn -0.6811 0.3374 0.6499
vn -0.3910 0.4999 0.7728
vn -0.3300 0.5277 0.7827
usemtl archbishop_01
s 1
f 1/1/1 2/2/1 3/3/1
f 4/4/2 5/5/3 6/6/4
f 6/6/4 7/7/5 4/4/2
f 8/8/6 4/4/2 7/7/5
f 7/7/5 9/9/7 8/8/6
f 10/10/8 8/8/6 9/9/7
f 9/9/7 11/11/9 10/10/8
f 12/12/10 10/10/8 11/11/9
f 11/11/9 13/13/11 12/12/10
f 14/14/12 12/12/10 13/13/11
f 13/13/11 15/15/13 14/14/12
f 14/14/12 15/15/13 16/16/14
f 16/16/14 17/17/15 14/14/12
f 18/18/16 17/17/15 16/16/14
f 6/6/4 19/19/17 20/20/18
f 20/20/18 7/7/5 6/6/4
f 7/7/5 20/20/18 21/21/19
f 21/21/19 9/9/7 7/7/5
f 9/9/7 21/21/19 22/22/20
f 22/22/20 11/11/9 9/9/7
f 11/11/9 22/22/20 23/23/21
f 23/23/21 13/13/11 11/11/9
f 13/13/11 23/23/21 24/24/22
f 24/24/22 15/15/13 13/13/11
f 15/15/13 24/24/22 25/25/23
f 25/25/23 16/16/14 15/15/13
f 16/16/14 25/25/23 26/26/24
f 26/26/24 27/27/25 16/16/14
f 16/16/14 27/27/25 18/18/16
f 18/18/16 27/27/25 28/28/26
f 28/28/26 29/29/27 18/18/16
f 30/30/28 29/29/27 28/28/26
f 31/31/29 32/32/30 33/33/31
f 34/34/32 32/32/30 31/31/29
f 31/31/29 35/35/33 34/34/32
f 34/34/32 35/35/33 36/36/34
f 37/37/35 36/36/34 35/35/33
f 38/38/36 36/36/34 37/37/35
f 37/37/35 30/30/28 38/38/36
f 28/28/26 38/38/36 30/30/28
f 39/39/37 38/38/36 28/28/26
f 28/28/26 40/40/38 39/39/37
f 40/40/38 28/28/26 27/27/25
f 27/27/25 26/26/24 40/40/38
f 36/36/34 41/41/39 34/34/32
f 39/39/37 41/41/39 36/36/34
f 36/36/34 38/38/36 39/39/37
f 30/30/28 42/42/40 29/29/27
f 42/42/40 30/30/28 37/37/35
f 37/37/35 43/43/41 42/42/40
f 43/43/41 37/37/35 44/44/42
f 35/35/33 44/44/42 37/37/35
f 45/45/43 44/44/42 35/35/33
f 35/35/33 31/31/29 45/45/43
f 45/45/43 31/31/29 46/46/44
f 33/33/31 46/46/44 31/31/29
f 47/47/45 46/46/44 33/33/31
f 33/33/31 48/48/46 47/47/45
f 49/49/47 47/47/45 48/48/46
f 48/48/46 50/50/48 49/49/47
f 51/51/49 49/49/47 50/50/48
f 50/50/48 52/52/50 51/51/49
f 53/53/51 51/51/49 52/52/50
f 52/52/50 54/54/52 53/53/51
f 55/55/53 53/53/51 54/54/52
f 1/1/54 56/56/55 45/45/43
f 44/44/42 45/45/43 56/56/55
f 56/56/55 57/57/56 44/44/42
f 44/44/42 57/57/56 43/43/41
f 58/58/57 59/59/58 60/60/59
f 60/60/59 61/61/60 58/58/57
f 61/61/60 60/60/59 62/62/61
f 62/62/61 63/63/62 61/61/60
f 63/63/62 62/62/61 64/64/63
f 64/64/63 55/55/53 63/63/62
f 55/55/53 64/64/63 65/65/64
f 65/65/64 53/53/51 55/55/53
f 51/51/49 53/53/51 65/65/64
f 65/65/64 66/66/65 51/51/49
f 51/51/49 66/66/65 67/67/66
f 67/67/66 49/49/47 51/51/49
f 47/47/45 49/49/47 67/67/66
f 67/67/66 2/2/67 47/47/45
f 47/47/45 2/2/67 68/68/68
f 68/68/68 46/46/44 47/47/45
f 46/46/44 68/68/68 45/45/43
f 45/45/43 68/68/68 1/1/54
f 68/68/68 2/2/67 1/1/54
f 54/54/52 69/69/69 55/55/53
f 63/63/62 55/55/53 69/69/69
f 69/69/69 70/70/70 63/63/62
f 61/61/60 63/63/62 70/70/70
f 70/70/70 71/71/71 61/61/60
f 58/58/57 61/61/60 71/71/71
f 71/71/71 72/72/72 58/58/57
f 6/73/4 58/58/57 72/72/72
f 59/59/58 58/58/57 6/73/4
f 6/73/4 5/74/3 59/59/58
f 72/72/72 19/75/17 6/73/4
f 42/42/73 73/76/73 29/29/73
f 43/43/74 57/57/75 74/77/76
f 74/77/76 75/78/77 43/43/74
f 43/43/74 75/78/77 73/79/78
f 73/79/78 42/42/79 43/43/80
f 74/80/76 57/57/75 56/56/81
f 56/56/81 76/81/82 74/80/76
f 3/82/83 76/81/82 56/56/81
f 56/56/81 1/1/84 3/82/83
f 77/83/85 78/84/86 19/75/87
f 19/75/87 72/72/88 77/83/85
f 79/85/89 77/83/85 72/72/88
f 72/72/88 71/71/90 79/85/89
f 80/86/91 79/85/89 71/71/90
f 71/71/90 70/70/92 80/86/91
f 81/87/93 80/86/91 70/70/92
f 70/70/92 69/69/94 81/87/93
f 82/88/95 81/87/93 69/69/94
f 69/69/94 54/54/96 82/88/95
f 83/89/97 82/88/95 54/54/96
f 54/54/96 52/52/98 83/89/97
f 84/90/99 83/89/97 52/52/98
f 52/52/98 50/50/100 84/90/99
f 85/91/101 84/90/99 50/50/100
f 50/50/100 48/48/102 85/91/101
f 86/92/103 85/91/101 48/48/102
f 48/48/102 33/33/104 86/92/103
f 86/92/103 33/33/104 32/32/105
f 32/32/105 87/93/106 86/92/103
f 87/93/106 32/32/105 34/34/107
f 34/34/107 88/94/108 87/93/106
f 89/95/109 88/94/108 34/34/107
f 34/34/107 41/41/110 89/95/109
f 90/96/111 89/95/109 41/41/110
f 41/41/110 39/39/112 90/96/111
f 90/96/111 39/39/112 40/40/113
f 40/40/113 91/97/114 90/96/111
f 91/97/114 40/40/113 26/26/115
f 26/26/115 92/98/116 91/97/114
f 92/98/116 26/26/115 25/25/117
f 25/25/117 93/99/118 92/98/116
f 93/99/118 25/25/117 24/24/119
f 24/24/119 94/100/120 93/99/118
f 94/100/120 24/24/119 23/23/121
f 23/23/121 95/101/122 94/100/120
f 95/101/122 23/23/121 22/22/123
f 22/22/123 96/102/124 95/101/122
f 96/102/124 22/22/123 21/21/125
f 21/21/125 97/103/126 96/102/124
f 97/103/126 21/21/125 20/20/127
f 20/20/127 98/104/128 97/103/126
f 98/104/128 20/20/127 19/19/87
f 19/19/87 78/105/86 98/104/128
