# Blender v2.92.0 OBJ File: ''
# www.blender.org
mtllib bishopry.mtl
o hat_04
v -3.468001 1.031815 1.212326
v -4.152528 -1.900112 1.331913
v -3.859748 -1.900112 1.331912
v -4.094797 -2.687729 -0.800018
v -3.682431 -2.728966 -0.989706
v -4.078302 -1.277435 -1.080426
v -3.797893 -0.403221 1.063875
v -3.694802 1.134903 1.076246
v -3.294807 1.930771 1.987575
v -3.290684 2.594681 1.063876
v -2.511313 3.283333 2.507156
v -2.375232 4.042084 1.950462
v -1.208237 3.617348 3.129828
v -1.327823 2.912201 3.323640
v 0.004118 3.143127 3.608173
v 0.004118 2.821480 3.406112
v 1.340183 2.912201 3.323641
v 2.511301 2.631790 2.696844
v 2.399962 2.359627 2.630866
v -2.498942 2.631790 2.696844
v -2.387603 2.359627 2.630865
v -1.731941 6.202881 -0.416517
v -2.140183 5.423508 0.795838
v -1.043291 5.670929 1.307171
v -2.255646 4.738976 1.369026
v -1.080404 5.097740 2.123655
v -1.142258 4.351357 2.577257
v 0.004118 3.831779 3.290651
v 1.220597 3.617348 3.129829
v 2.523672 3.283333 2.507156
v 3.307167 1.930771 1.987575
v 3.480360 1.031815 1.212328
v 3.707161 1.134903 1.076247
v 3.810253 -0.403221 1.063876
v 4.037054 0.355530 -1.455679
v 0.004118 5.835869 1.599951
v 0.004118 6.429680 0.094816
v 1.055650 5.670929 1.307172
v 1.311318 0.586456 -5.867992
v 2.799957 0.718414 -5.154600
v 2.849441 -0.444458 -4.721616
v 3.777264 -0.077454 -3.303077
v 3.752522 1.196762 -3.496889
v 3.966952 1.637993 -1.826808
v 3.303043 2.594681 1.063876
v 2.387591 4.042084 1.950463
v 1.154618 4.351357 2.577258
v 0.004118 4.503929 2.849419
v 0.004118 5.192581 2.189634
v 3.257684 3.402916 0.107188
v 1.092763 5.097740 2.123655
v 2.263882 4.738976 1.369026
v 3.100984 4.149300 -0.268066
v 3.505103 3.522499 -2.111340
v 3.789635 2.706017 -1.863921
v 3.694791 2.190559 -3.694824
v 2.812328 1.728714 -5.261815
v 1.327813 1.584381 -5.933969
v 2.536043 2.611176 -5.307174
v 1.204103 2.475090 -5.979331
v 2.255635 3.427658 -5.187589
v 1.063899 3.316315 -5.789641
v 3.439124 3.011169 -3.822657
v 3.096861 3.786415 -3.929873
v 1.736054 4.442078 -4.973159
v 0.004119 4.240013 -5.698922
v 1.043280 5.316292 -4.523680
v 0.004118 5.254433 -4.944293
v 2.152543 5.423508 0.795838
v 2.874183 4.870934 -0.655689
v 3.232942 4.268883 -2.350512
v 2.498931 5.044128 -2.898959
v 1.435027 5.687416 -3.393797
v 0.004118 6.050301 -3.744309
v -1.030920 5.316292 -4.523680
v -1.723693 4.442078 -4.973158
v 1.129877 6.211128 -2.243297
v 1.744302 6.202881 -0.416517
v 0.004119 6.413185 -2.061856
v -1.117516 6.211128 -2.243298
v -1.422667 5.687416 -3.393798
v -2.486570 5.044128 -2.898959
v -3.084500 3.786415 -3.929873
v -2.651516 -3.681526 -3.703073
v -3.884490 -3.285660 -2.618551
v -3.888613 -1.830009 -2.775249
v -3.764904 -0.077454 -3.303079
v -4.024695 0.355530 -1.455679
v -3.740162 1.196762 -3.496890
v -3.954592 1.637993 -1.826808
v -3.682430 2.190559 -3.694825
v -3.777274 2.706017 -1.863921
v -3.426764 3.011169 -3.822658
v -3.496866 3.522499 -2.111341
v -3.224704 4.268883 -2.350513
v -2.861824 4.870934 -0.655690
v -3.245322 3.402916 0.107186
v -3.092748 4.149300 -0.268066
v -2.787597 0.718414 -5.154599
v -2.799968 1.728714 -5.261814
v -2.527807 2.611176 -5.307176
v -2.243274 3.427658 -5.187590
v -1.051537 3.316315 -5.789642
v 0.004119 3.299828 -6.020567
v 0.004119 2.454475 -6.123660
v 0.004119 1.588509 -6.169020
v -1.191741 2.475090 -5.979331
v -1.315451 1.584381 -5.933970
v -2.837081 -0.444458 -4.721616
v -1.298956 0.586456 -5.867992
v -1.270092 -0.625900 -5.521605
v -1.340194 -2.328968 -4.783470
v 0.004118 -2.143402 -4.989654
v 0.004118 -3.801113 -5.026767
v 1.352554 -2.328968 -4.783470
v 1.278328 -0.625900 -5.521605
v 0.004119 0.483368 -6.028815
v 0.004118 -0.601158 -5.740158
v -1.418543 -3.846474 -4.766975
v -2.882441 -2.234123 -4.053584
v 4.090661 -1.277435 -1.080426
v 3.900974 -1.830002 -2.775249
v 2.894802 -2.234123 -4.053584
v 1.430903 -3.846474 -4.766975
v 0.004118 -3.623795 -4.577289
v -2.977285 -3.813484 -3.971110
v 2.663877 -3.681526 -3.703071
v 4.107156 -2.687725 -0.800018
v 4.164887 -1.900108 1.331914
v 3.872108 -1.900108 1.331914
v 3.694791 -2.728962 -0.989706
v 3.896850 -3.285656 -2.618550
v 2.989646 -3.813484 -3.971109
v -1.558747 2.804985 -3.162872
v -3.100995 0.516357 -1.265991
v 0.004118 3.926620 -3.917502
v 1.571108 2.804985 -3.162873
v 3.113355 0.516357 -1.265991
vt 0.724800 0.352500
vt 0.604400 0.162300
vt 0.652300 0.134400
vt 0.484800 0.139800
vt 0.456300 0.098500
vt 0.488300 0.243800
vt 0.641800 0.263900
vt 0.685500 0.389900
vt 0.756500 0.465600
vt 0.686200 0.522200
vt 0.799600 0.568800
vt 0.766900 0.632800
vt 0.887700 0.610500
vt 0.898800 0.551500
vt 0.982500 0.572800
vt 0.989600 0.527400
vt 0.898800 0.551500
vt 0.825100 0.517900
vt 0.834900 0.472500
vt 0.825100 0.517900
vt 0.834900 0.472500
vt 0.582000 0.819200
vt 0.680400 0.747000
vt 0.744100 0.796200
vt 0.728600 0.690800
vt 0.813400 0.737800
vt 0.854200 0.677700
vt 0.955500 0.638000
vt 0.887700 0.610500
vt 0.799600 0.568800
vt 0.756500 0.465600
vt 0.724800 0.352500
vt 0.685500 0.389900
vt 0.641800 0.263900
vt 0.484500 0.368600
vt 0.795500 0.844700
vt 0.657700 0.913000
vt 0.744100 0.796200
vt 0.093100 0.452600
vt 0.206200 0.448200
vt 0.211000 0.353000
vt 0.344900 0.361900
vt 0.345900 0.457500
vt 0.469700 0.467800
vt 0.686200 0.522200
vt 0.766900 0.632800
vt 0.854200 0.677700
vt 0.930200 0.710800
vt 0.870900 0.784800
vt 0.621200 0.592400
vt 0.813400 0.737800
vt 0.728600 0.690800
vt 0.598300 0.651700
vt 0.462800 0.618300
vt 0.474700 0.552200
vt 0.343000 0.535400
vt 0.214800 0.527200
vt 0.104600 0.542900
vt 0.224100 0.601200
vt 0.125700 0.626300
vt 0.236600 0.673700
vt 0.151600 0.701000
vt 0.339900 0.598600
vt 0.340600 0.668000
vt 0.256800 0.761700
vt 0.144200 0.817200
vt 0.284000 0.839300
vt 0.225400 0.890700
vt 0.680400 0.747000
vt 0.570300 0.712800
vt 0.451100 0.683500
vt 0.417700 0.766700
vt 0.384000 0.842000
vt 0.347100 0.941300
vt 0.284000 0.839300
vt 0.256800 0.761700
vt 0.474300 0.875000
vt 0.582000 0.819200
vt 0.498600 0.948900
vt 0.474300 0.875000
vt 0.384000 0.842000
vt 0.417700 0.766700
vt 0.340600 0.668000
vt 0.232400 0.061800
vt 0.349300 0.114700
vt 0.348000 0.228800
vt 0.344900 0.361900
vt 0.484500 0.368600
vt 0.345900 0.457500
vt 0.469700 0.467800
vt 0.343000 0.535400
vt 0.474700 0.552200
vt 0.339900 0.598600
vt 0.462800 0.618300
vt 0.451100 0.683500
vt 0.570300 0.712800
vt 0.621200 0.592400
vt 0.598300 0.651700
vt 0.206200 0.448200
vt 0.214800 0.527200
vt 0.224100 0.601200
vt 0.236600 0.673700
vt 0.151600 0.701000
vt 0.086900 0.729700
vt 0.051100 0.646200
vt 0.026200 0.558900
vt 0.125700 0.626300
vt 0.104600 0.542900
vt 0.211000 0.353000
vt 0.093100 0.452600
vt 0.088500 0.345000
vt 0.098100 0.204900
vt 0.013700 0.206700
vt 0.026100 0.072800
vt 0.098100 0.204900
vt 0.088500 0.345000
vt 0.013500 0.453100
vt 0.010700 0.347600
vt 0.117000 0.083400
vt 0.212000 0.213400
vt 0.488300 0.243800
vt 0.348000 0.228800
vt 0.212000 0.213400
vt 0.117000 0.083400
vt 0.030500 0.033700
vt 0.227700 0.096700
vt 0.232400 0.061800
vt 0.484800 0.139800
vt 0.604400 0.162300
vt 0.652300 0.134400
vt 0.456300 0.098500
vt 0.349300 0.114700
vt 0.227700 0.096700
vt 0.788100 0.202400
vt 0.982100 0.181600
vt 0.975600 0.268300
vt 0.836900 0.103100
vt 0.940600 0.082000
vt 0.894700 0.017500
vt 0.801600 0.025900
vt 0.728600 0.040300
vt 0.661000 0.082500
vt 0.751500 0.275200
vt 0.788100 0.202400
vt 0.982100 0.181600
vt 0.836900 0.103100
vt 0.940600 0.082000
vt 0.894700 0.017500
vt 0.801600 0.025900
vt 0.728600 0.040300
vn 0.1368 -0.5931 0.7934
vn -0.6462 -0.3815 0.6610
vn 0.5098 -0.4864 0.7096
vn -0.6976 -0.6912 0.1887
vn 0.5901 -0.7111 0.3821
vn -0.9985 0.0407 -0.0378
vn -0.9830 0.1750 0.0550
vn -0.9085 0.0376 0.4161
vn -0.7564 -0.1389 0.6392
vn -0.9225 0.3188 0.2174
vn -0.6902 0.3885 0.6105
vn -0.7177 0.4910 0.4938
vn -0.3477 0.4559 0.8193
vn -0.2941 -0.2040 0.9337
vn 0.0000 -0.0349 0.9994
vn 0.0032 -0.8442 0.5360
vn 0.3016 -0.3023 0.9042
vn 0.5264 -0.0612 0.8480
vn 0.0162 -0.7419 0.6703
vn -0.5591 -0.0459 0.8278
vn -0.0451 -0.7705 0.6358
vn -0.4796 0.8718 0.1000
vn -0.6479 0.6435 0.4076
vn -0.3425 0.8152 0.4670
vn -0.7205 0.5235 0.4549
vn -0.3587 0.6542 0.6659
vn -0.3705 0.5365 0.7582
vn -0.0004 0.5036 0.8639
vn 0.3474 0.4561 0.8193
vn 0.6901 0.3885 0.6106
vn 0.7563 -0.1391 0.6393
vn -0.1362 -0.5951 0.7921
vn 0.9086 0.0377 0.4160
vn 0.9256 0.1392 0.3519
vn 0.9991 0.0398 -0.0136
vn -0.0001 0.8443 0.5359
vn 0.0005 0.9764 0.2159
vn 0.3427 0.8148 0.4677
vn 0.2991 -0.1772 -0.9376
vn 0.6647 -0.1531 -0.7312
vn 0.6635 -0.2341 -0.7106
vn 0.9397 -0.0471 -0.3389
vn 0.9500 -0.0178 -0.3119
vn 0.9935 0.1136 0.0019
vn 0.9225 0.3188 0.2174
vn 0.7174 0.4914 0.4938
vn 0.3709 0.5365 0.7580
vn -0.0004 0.5888 0.8083
vn 0.0000 0.6844 0.7291
vn 0.9301 0.2998 0.2122
vn 0.3588 0.6543 0.6657
vn 0.7202 0.5237 0.4551
vn 0.9168 0.3426 0.2051
vn 0.9448 0.3270 -0.0215
vn 0.9695 0.2422 0.0390
vn 0.9375 0.1253 -0.3247
vn 0.6791 0.0339 -0.7332
vn 0.3123 -0.0338 -0.9494
vn 0.6190 0.2138 -0.7557
vn 0.2863 0.1286 -0.9495
vn 0.5698 0.3660 -0.7358
vn 0.2937 0.3070 -0.9052
vn 0.8929 0.2823 -0.3508
vn 0.7964 0.4568 -0.3964
vn 0.4886 0.5609 -0.6683
vn 0.0002 0.4816 -0.8764
vn 0.3687 0.7365 -0.5671
vn -0.0005 0.7026 -0.7116
vn 0.6481 0.6432 0.4078
vn 0.8496 0.5201 0.0874
vn 0.8746 0.4749 -0.0975
vn 0.6841 0.6853 -0.2498
vn 0.4808 0.8068 -0.3434
vn -0.0005 0.9199 -0.3922
vn -0.3685 0.7366 -0.5671
vn -0.4885 0.5611 -0.6683
vn 0.3539 0.9173 -0.1822
vn 0.4794 0.8719 0.1000
vn -0.0002 0.9938 -0.1116
vn -0.3541 0.9172 -0.1824
vn -0.4809 0.8067 -0.3434
vn -0.6841 0.6854 -0.2494
vn -0.7963 0.4570 -0.3962
vn 0.3343 -0.7475 0.5740
vn -0.7337 -0.6748 -0.0801
vn -0.9381 -0.0485 -0.3430
vn -0.9397 -0.0471 -0.3389
vn -0.9991 0.0398 -0.0136
vn -0.9502 -0.0185 -0.3110
vn -0.9935 0.1136 0.0019
vn -0.9375 0.1254 -0.3246
vn -0.9694 0.2422 0.0391
vn -0.8931 0.2817 -0.3508
vn -0.9450 0.3262 -0.0217
vn -0.8747 0.4747 -0.0975
vn -0.8495 0.5203 0.0874
vn -0.9302 0.2994 0.2125
vn -0.9169 0.3423 0.2052
vn -0.6649 -0.1522 -0.7313
vn -0.6789 0.0338 -0.7334
vn -0.6188 0.2144 -0.7558
vn -0.5701 0.3655 -0.7358
vn -0.2932 0.3070 -0.9054
vn -0.0004 0.2196 -0.9756
vn 0.0003 0.1117 -0.9937
vn 0.0000 -0.0400 -0.9992
vn -0.2861 0.1287 -0.9495
vn -0.3124 -0.0340 -0.9494
vn -0.6637 -0.2337 -0.7105
vn -0.2987 -0.1778 -0.9377
vn -0.2959 -0.3268 -0.8976
vn -0.2951 -0.1677 -0.9407
vn -0.0001 -0.2222 -0.9750
vn 0.0131 -0.7691 -0.6390
vn 0.2950 -0.1676 -0.9407
vn 0.2960 -0.3266 -0.8976
vn -0.0002 -0.1995 -0.9799
vn -0.0000 -0.3459 -0.9383
vn -0.2063 -0.7613 -0.6147
vn -0.6533 -0.1297 -0.7459
vn 0.9985 0.0407 -0.0378
vn 0.9381 -0.0485 -0.3430
vn 0.6533 -0.1297 -0.7459
vn 0.1872 -0.7787 -0.5988
vn 0.0131 -0.6715 0.7409
vn -0.5050 -0.7722 -0.3856
vn -0.3353 -0.7475 0.5735
vn 0.6979 -0.6909 0.1888
vn 0.6338 -0.3470 0.6913
vn -0.4995 -0.4449 0.7433
vn -0.5901 -0.7111 0.3821
vn 0.7337 -0.6747 -0.0802
vn 0.5045 -0.7726 -0.3854
vn 0.7079 -0.5376 0.4582
vn 0.9140 -0.3024 0.2704
vn -0.0002 -0.7951 0.6065
vn -0.7073 -0.5380 0.4586
vn -0.9140 -0.3024 0.2704
usemtl Hat_04
s 1
f 1/1/1 2/2/2 3/3/3
f 4/4/4 5/5/5 3/3/3
f 3/3/3 2/2/2 4/4/4
f 6/6/6 4/4/4 2/2/2
f 2/2/2 7/7/7 6/6/6
f 7/7/7 2/2/2 1/1/1
f 1/1/1 8/8/8 7/7/7
f 8/8/8 1/1/1 9/9/9
f 8/8/8 9/9/9 10/10/10
f 11/11/11 10/10/10 9/9/9
f 10/10/10 11/11/11 12/12/12
f 12/12/12 11/11/11 13/13/13
f 14/14/14 13/13/13 11/11/11
f 13/13/13 14/14/14 15/15/15
f 16/16/16 15/15/15 14/14/14
f 17/17/17 15/15/15 16/16/16
f 16/16/16 18/18/18 17/17/17
f 18/18/18 16/16/16 19/19/19
f 14/14/14 20/20/20 21/21/21
f 21/21/21 16/16/16 14/14/14
f 11/11/11 20/20/20 14/14/14
f 9/9/9 20/20/20 11/11/11
f 21/21/21 20/20/20 9/9/9
f 9/9/9 1/1/1 21/21/21
f 22/22/22 23/23/23 24/24/24
f 24/24/24 23/23/23 25/25/25
f 25/25/25 26/26/26 24/24/24
f 26/26/26 25/25/25 12/12/12
f 12/12/12 27/27/27 26/26/26
f 13/13/13 27/27/27 12/12/12
f 27/27/27 13/13/13 28/28/28
f 15/15/15 28/28/28 13/13/13
f 29/29/29 28/28/28 15/15/15
f 15/15/15 17/17/17 29/29/29
f 30/30/30 29/29/29 17/17/17
f 17/17/17 18/18/18 30/30/30
f 30/30/30 18/18/18 31/31/31
f 31/31/31 18/18/18 19/19/19
f 19/19/19 32/32/32 31/31/31
f 33/33/33 31/31/31 32/32/32
f 32/32/32 34/34/34 33/33/33
f 35/35/35 33/33/33 34/34/34
f 36/36/36 24/24/24 26/26/26
f 24/24/24 36/36/36 37/37/37
f 24/24/24 37/37/37 22/22/22
f 38/38/38 37/37/37 36/36/36
f 39/39/39 40/40/40 41/41/41
f 42/42/42 41/41/41 40/40/40
f 40/40/40 43/43/43 42/42/42
f 35/35/35 42/42/42 43/43/43
f 43/43/43 44/44/44 35/35/35
f 35/35/35 44/44/44 33/33/33
f 33/33/33 44/44/44 45/45/45
f 45/45/45 31/31/31 33/33/33
f 31/31/31 45/45/45 30/30/30
f 46/46/46 30/30/30 45/45/45
f 29/29/29 30/30/30 46/46/46
f 46/46/46 47/47/47 29/29/29
f 28/28/28 29/29/29 47/47/47
f 47/47/47 48/48/48 28/28/28
f 28/28/28 48/48/48 27/27/27
f 26/26/26 27/27/27 48/48/48
f 48/48/48 49/49/49 26/26/26
f 26/26/26 49/49/49 36/36/36
f 50/50/50 45/45/45 44/44/44
f 45/45/45 50/50/50 46/46/46
f 51/51/51 49/49/49 48/48/48
f 48/48/48 47/47/47 51/51/51
f 51/51/51 47/47/47 46/46/46
f 46/46/46 52/52/52 51/51/51
f 52/52/52 46/46/46 50/50/50
f 50/50/50 53/53/53 52/52/52
f 54/54/54 53/53/53 50/50/50
f 50/50/50 55/55/55 54/54/54
f 44/44/44 55/55/55 50/50/50
f 56/56/56 55/55/55 44/44/44
f 44/44/44 43/43/43 56/56/56
f 57/57/57 56/56/56 43/43/43
f 43/43/43 40/40/40 57/57/57
f 58/58/58 57/57/57 40/40/40
f 59/59/59 57/57/57 58/58/58
f 58/58/58 60/60/60 59/59/59
f 61/61/61 59/59/59 60/60/60
f 60/60/60 62/62/62 61/61/61
f 56/56/56 57/57/57 59/59/59
f 59/59/59 63/63/63 56/56/56
f 55/55/55 56/56/56 63/63/63
f 63/63/63 54/54/54 55/55/55
f 54/54/54 63/63/63 64/64/64
f 64/64/64 63/63/63 59/59/59
f 59/59/59 61/61/61 64/64/64
f 64/64/64 61/61/61 65/65/65
f 62/62/62 65/65/65 61/61/61
f 66/66/66 65/65/65 62/62/62
f 67/67/67 65/65/65 66/66/66
f 66/66/66 68/68/68 67/67/67
f 36/36/36 49/49/49 51/51/51
f 51/51/51 38/38/38 36/36/36
f 38/38/38 51/51/51 52/52/52
f 52/52/52 69/69/69 38/38/38
f 69/69/69 52/52/52 53/53/53
f 53/53/53 70/70/70 69/69/69
f 70/70/70 53/53/53 54/54/54
f 54/54/54 71/71/71 70/70/70
f 64/64/64 71/71/71 54/54/54
f 64/64/64 72/72/72 71/71/71
f 65/65/65 72/72/72 64/64/64
f 73/73/73 72/72/72 65/65/65
f 65/65/65 67/67/67 73/73/73
f 74/74/74 73/73/73 67/67/67
f 67/67/67 68/68/68 74/74/74
f 74/74/74 68/68/68 75/75/75
f 75/75/75 68/68/68 66/66/66
f 66/66/66 76/76/76 75/75/75
f 77/77/77 73/73/73 74/74/74
f 72/72/72 73/73/73 77/77/77
f 77/77/77 78/78/78 72/72/72
f 78/78/78 77/77/77 79/79/79
f 74/74/74 79/79/79 77/77/77
f 80/80/80 79/79/79 74/74/74
f 74/74/74 81/81/81 80/80/80
f 75/75/75 81/81/81 74/74/74
f 81/81/81 75/75/75 76/76/76
f 76/76/76 82/82/82 81/81/81
f 80/80/80 81/81/81 82/82/82
f 82/82/82 22/22/22 80/80/80
f 79/79/79 80/80/80 22/22/22
f 22/22/22 37/37/37 79/79/79
f 79/79/79 37/37/37 78/78/78
f 78/78/78 37/37/37 38/38/38
f 38/38/38 69/69/69 78/78/78
f 70/70/70 78/78/78 69/69/69
f 72/72/72 78/78/78 70/70/70
f 70/70/70 71/71/71 72/72/72
f 83/83/83 82/82/82 76/76/76
f 84/84/84 5/5/5 85/85/85
f 4/4/4 85/85/85 5/5/5
f 86/86/86 85/85/85 4/4/4
f 4/4/4 6/6/6 86/86/86
f 87/87/87 86/86/86 6/6/6
f 6/6/6 88/88/88 87/87/87
f 89/89/89 87/87/87 88/88/88
f 88/88/88 90/90/90 89/89/89
f 91/91/91 89/89/89 90/90/90
f 90/90/90 92/92/92 91/91/91
f 93/93/93 91/91/91 92/92/92
f 92/92/92 94/94/94 93/93/93
f 83/83/83 93/93/93 94/94/94
f 94/94/94 95/95/95 83/83/83
f 83/83/83 95/95/95 82/82/82
f 82/82/82 95/95/95 96/96/96
f 96/96/96 22/22/22 82/82/82
f 96/96/96 23/23/23 22/22/22
f 97/97/97 98/98/98 94/94/94
f 94/94/94 92/92/92 97/97/97
f 97/97/97 92/92/92 90/90/90
f 88/88/88 6/6/6 7/7/7
f 7/7/7 8/8/8 88/88/88
f 88/88/88 8/8/8 90/90/90
f 10/10/10 90/90/90 8/8/8
f 90/90/90 10/10/10 97/97/97
f 12/12/12 97/97/97 10/10/10
f 97/97/97 12/12/12 25/25/25
f 25/25/25 98/98/98 97/97/97
f 98/98/98 25/25/25 23/23/23
f 23/23/23 96/96/96 98/98/98
f 94/94/94 98/98/98 96/96/96
f 96/96/96 95/95/95 94/94/94
f 87/87/87 89/89/89 99/99/99
f 100/100/100 99/99/99 89/89/89
f 89/89/89 91/91/91 100/100/100
f 101/101/101 100/100/100 91/91/91
f 91/91/91 93/93/93 101/101/101
f 101/101/101 93/93/93 83/83/83
f 83/83/83 102/102/102 101/101/101
f 76/76/76 102/102/102 83/83/83
f 103/103/103 102/102/102 76/76/76
f 103/103/103 76/76/76 66/66/66
f 66/66/66 104/104/104 103/103/103
f 62/62/62 104/104/104 66/66/66
f 105/105/105 104/104/104 62/62/62
f 62/62/62 60/60/60 105/105/105
f 106/106/106 105/105/105 60/60/60
f 60/60/60 58/58/58 106/106/106
f 106/106/106 58/58/58 39/39/39
f 40/40/40 39/39/39 58/58/58
f 107/107/107 105/105/105 106/106/106
f 106/106/106 108/108/108 107/107/107
f 109/109/109 99/99/99 110/110/110
f 110/110/110 111/111/111 109/109/109
f 109/109/109 111/111/111 112/112/112
f 113/113/113 112/112/112 111/111/111
f 112/112/112 113/113/113 114/114/114
f 114/114/114 113/113/113 115/115/115
f 116/116/116 115/115/115 113/113/113
f 115/115/115 116/116/116 41/41/41
f 41/41/41 116/116/116 39/39/39
f 117/117/117 39/39/39 116/116/116
f 39/39/39 117/117/117 106/106/106
f 106/106/106 117/117/117 110/110/110
f 110/110/110 108/108/108 106/106/106
f 108/108/108 110/110/110 99/99/99
f 99/99/99 100/100/100 108/108/108
f 108/108/108 100/100/100 101/101/101
f 101/101/101 107/107/107 108/108/108
f 107/107/107 101/101/101 102/102/102
f 102/102/102 103/103/103 107/107/107
f 105/105/105 107/107/107 103/103/103
f 103/103/103 104/104/104 105/105/105
f 111/111/111 110/110/110 117/117/117
f 117/117/117 118/118/118 111/111/111
f 111/111/111 118/118/118 113/113/113
f 113/113/113 118/118/118 116/116/116
f 116/116/116 118/118/118 117/117/117
f 114/114/114 119/119/119 112/112/112
f 120/120/120 112/112/112 119/119/119
f 112/112/112 120/120/120 109/109/109
f 34/34/34 121/121/121 35/35/35
f 42/42/42 35/35/35 121/121/121
f 121/121/121 122/122/122 42/42/42
f 41/41/41 42/42/42 122/122/122
f 122/122/122 123/123/123 41/41/41
f 41/41/41 123/123/123 115/115/115
f 124/124/124 115/115/115 123/123/123
f 115/115/115 124/124/124 114/114/114
f 125/125/125 114/114/114 124/124/124
f 84/84/84 114/114/114 125/125/125
f 119/119/119 114/114/114 84/84/84
f 84/84/84 126/126/126 119/119/119
f 119/119/119 126/126/126 120/120/120
f 120/120/120 126/126/126 85/85/85
f 85/85/85 86/86/86 120/120/120
f 109/109/109 120/120/120 86/86/86
f 86/86/86 87/87/87 109/109/109
f 99/99/99 109/109/109 87/87/87
f 85/85/85 126/126/126 84/84/84
f 124/124/124 127/127/127 125/125/125
f 128/128/128 129/129/129 130/130/130
f 130/130/130 131/131/131 128/128/128
f 128/128/128 131/131/131 132/132/132
f 132/132/132 131/131/131 127/127/127
f 127/127/127 133/133/133 132/132/132
f 127/127/127 124/124/124 133/133/133
f 123/123/123 133/133/133 124/124/124
f 132/132/132 133/133/133 123/123/123
f 123/123/123 122/122/122 132/132/132
f 128/128/128 132/132/132 122/122/122
f 122/122/122 121/121/121 128/128/128
f 129/129/129 128/128/128 121/121/121
f 121/121/121 34/34/34 129/129/129
f 130/130/130 129/129/129 34/34/34
f 34/34/34 32/32/32 130/130/130
f 134/134/134 84/135/84 125/136/125
f 84/135/84 134/134/134 135/137/135
f 135/137/135 5/138/5 84/135/84
f 5/138/5 135/137/135 3/139/3
f 3/139/3 135/137/135 1/140/1
f 21/141/21 1/140/1 135/137/135
f 135/137/135 134/134/134 21/141/21
f 16/142/16 21/141/21 134/134/134
f 134/134/134 136/143/136 16/142/16
f 16/142/16 136/143/136 137/144/137
f 137/144/137 136/143/136 125/136/125
f 125/136/125 127/145/127 137/144/137
f 138/146/138 137/144/137 127/145/127
f 127/145/127 131/147/131 138/146/138
f 131/147/131 130/148/130 138/146/138
f 130/148/130 32/149/32 138/146/138
f 138/146/138 32/149/32 19/150/19
f 19/150/19 137/144/137 138/146/138
f 137/144/137 19/150/19 16/142/16
f 125/136/125 136/143/136 134/134/134
