# Blender v2.92.0 OBJ File: ''
# www.blender.org
mtllib peasanthood.mtl
o Bishop5
v -8.977533 1.017822 -0.596338
v -9.712006 -0.003593 -2.829255
v -9.374752 0.287724 -0.496486
v -9.061211 -2.231434 -5.369776
v -8.957414 0.751152 -3.171823
v -7.105348 0.662941 -0.696189
v -7.417482 0.714394 -3.514429
v -5.352158 0.830421 -0.822684
v -5.927517 0.793579 -3.338829
v -4.970916 2.522274 -1.035866
v -4.814185 2.132324 -3.303123
v -3.935908 2.809998 -1.197715
v -3.756441 3.057316 -3.344102
v 0.078366 0.369911 -1.394880
v -2.360623 3.182259 -4.878096
v 0.112040 3.325703 -6.148434
v -2.649163 1.061768 -5.661246
v 0.078365 0.674427 -6.525965
v -3.398560 0.035980 -7.122693
v 0.078365 -0.368275 -9.217630
v -5.467948 -2.113842 -6.555031
v 0.078365 -2.615288 -8.822873
v 0.078365 -6.492916 -7.906468
v -4.893371 -5.979477 -7.727625
v -5.564322 -5.753914 3.646120
v -3.033842 -6.722862 4.444311
v -3.063844 -6.329472 4.846960
v 0.078366 -7.001083 5.036936
v 0.078366 -3.791641 3.695186
v 3.220577 -6.329468 4.846960
v 4.029940 -3.379494 3.885474
v 5.670348 -5.403099 4.089436
v -3.873208 -3.379498 3.885475
v -5.513577 -5.403099 4.089438
v 0.078366 -7.360138 4.641202
v 3.190614 -6.722862 4.444310
v 5.721055 -5.753906 3.646118
v 7.531514 -3.501541 2.603765
v 9.217943 -2.231430 -5.369779
v 9.868738 -0.003593 -2.829257
v 9.531485 0.287724 -0.496488
v 9.183838 -0.549652 1.157983
v -9.027107 -0.549652 1.157986
v 4.705307 1.964062 1.293347
v 4.047637 2.181625 0.771624
v 2.526262 1.398125 2.423128
v 4.092640 2.809998 -1.197716
v 5.127645 2.522278 -1.035867
v 5.508887 0.830418 -0.822686
v 0.078366 0.990078 3.438642
v 2.887385 1.211040 3.147055
v 4.961891 0.007381 1.207597
v 6.667264 -0.402412 1.689668
v 7.262079 0.662949 -0.696193
v 8.701181 0.066456 1.423826
v 9.134264 1.017822 -0.596341
v 7.873887 -2.392181 3.018097
v 3.009192 -1.527122 2.696589
v 0.078366 0.451756 4.025331
v -2.730653 1.211037 3.147056
v -2.369530 1.398121 2.423129
v -4.548576 1.964062 1.293349
v -4.805161 0.007385 1.207599
v -2.852460 -1.527122 2.696589
v 0.078366 -2.394844 3.124554
v -7.374784 -3.501537 2.603769
v -7.717155 -2.392193 3.018100
v -6.510533 -0.402420 1.689670
v -3.890904 2.181618 0.771626
v -8.544450 0.066448 1.423828
v 7.574214 0.714394 -3.514430
v 9.114145 0.751160 -3.171825
v 6.084248 0.793587 -3.338830
v 4.970914 2.132324 -3.303124
v 3.913211 3.057327 -3.344102
v 2.517354 3.182255 -4.878096
v 0.044691 3.325703 -6.148434
v 2.805893 1.061768 -5.661245
v 3.555290 0.035976 -7.122694
v 5.624679 -2.113842 -6.555030
v 5.050100 -5.979469 -7.727626
vt 0.129285 0.806072
vt 0.137639 0.775743
vt 0.138830 0.804417
vt 0.124082 0.779777
vt 0.136630 0.738471
vt 0.106705 0.807409
vt 0.105038 0.778091
vt 0.087850 0.808233
vt 0.086274 0.782021
vt 0.072331 0.807924
vt 0.068351 0.786249
vt 0.064257 0.809011
vt 0.055541 0.788475
vt 0.017895 0.828594
vt 0.036377 0.778144
vt 0.013766 0.781964
vt 0.044105 0.755621
vt 0.014790 0.752021
vt 0.052530 0.738539
vt 0.015016 0.722007
vt 0.080556 0.729374
vt 0.015263 0.702880
vt 0.016591 0.653898
vt 0.080527 0.672293
vt 0.319874 0.682739
vt 0.287272 0.694519
vt 0.317255 0.678570
vt 0.361662 0.676636
vt 0.361662 0.714730
vt 0.403449 0.682137
vt 0.408209 0.722754
vt 0.432792 0.697265
vt 0.315114 0.723357
vt 0.290532 0.697868
vt 0.361662 0.672576
vt 0.406068 0.677967
vt 0.436051 0.693916
vt 0.459187 0.732524
vt 0.410801 0.784168
vt 0.409066 0.788412
vt 0.387463 0.777652
vt 0.361661 0.833279
vt 0.418843 0.802303
vt 0.425959 0.798302
vt 0.438688 0.795893
vt 0.361662 0.775120
vt 0.388653 0.771050
vt 0.420951 0.770206
vt 0.439145 0.768267
vt 0.449949 0.796622
vt 0.461691 0.776063
vt 0.469395 0.796927
vt 0.471974 0.770845
vt 0.451462 0.742608
vt 0.477998 0.792437
vt 0.397324 0.743360
vt 0.361661 0.765469
vt 0.334670 0.771653
vt 0.335860 0.778255
vt 0.312522 0.784771
vt 0.302372 0.770809
vt 0.325999 0.743963
vt 0.361661 0.730481
vt 0.264136 0.733127
vt 0.271861 0.743211
vt 0.284178 0.768870
vt 0.284635 0.796495
vt 0.297364 0.798904
vt 0.314257 0.789015
vt 0.304480 0.802906
vt 0.251349 0.771448
vt 0.261632 0.776666
vt 0.273374 0.797224
vt 0.253928 0.797529
vt 0.245325 0.793039
vt 0.586693 0.737868
vt 0.618285 0.777488
vt 0.599241 0.779174
vt 0.585685 0.775140
vt 0.594038 0.805469
vt 0.616618 0.806807
vt 0.635473 0.807630
vt 0.584493 0.803814
vt 0.637049 0.781418
vt 0.650992 0.807321
vt 0.654972 0.785646
vt 0.659066 0.808408
vt 0.667782 0.787872
vt 0.705429 0.827991
vt 0.686946 0.777541
vt 0.709557 0.781362
vt 0.679218 0.755018
vt 0.708533 0.751418
vt 0.670793 0.737936
vt 0.708307 0.721404
vt 0.642767 0.728771
vt 0.708060 0.702277
vt 0.706732 0.653295
vt 0.642796 0.671690
vn -0.1729 0.9823 -0.0722
vn -0.7680 0.5314 -0.3576
vn -0.8727 0.4838 0.0658
vn -0.3049 0.8352 -0.4577
vn -0.5215 0.3075 -0.7959
vn 0.0138 0.9998 -0.0145
vn -0.1214 0.8216 -0.5570
vn -0.6456 0.7494 0.1466
vn -0.4815 0.7423 -0.4659
vn -0.7724 0.6351 -0.0051
vn -0.6458 0.6324 -0.4279
vn 0.3194 0.9433 0.0901
vn 0.1942 0.9655 0.1734
vn 0.3507 0.8509 0.3912
vn -0.0184 0.9991 0.0394
vn -0.0240 0.9929 -0.1164
vn -0.2967 0.6195 -0.7268
vn -0.1934 0.6920 -0.6955
vn -0.4603 0.5602 -0.6887
vn -0.3719 0.3105 -0.8748
vn -0.3618 0.2863 -0.8872
vn -0.3863 -0.1932 -0.9019
vn -0.1674 -0.0212 -0.9857
vn -0.2082 0.0856 -0.9743
vn -0.0479 0.2004 0.9785
vn -0.5487 -0.1119 0.8285
vn -0.2446 -0.1338 0.9604
vn 0.0000 0.2286 0.9735
vn -0.0000 0.3640 0.9314
vn 0.0479 0.2004 0.9785
vn 0.0403 0.3974 0.9167
vn 0.3042 0.0754 0.9496
vn -0.0403 0.3975 0.9167
vn -0.3041 0.0754 0.9496
vn -0.0000 -0.1419 0.9899
vn 0.2446 -0.1338 0.9603
vn 0.5487 -0.1119 0.8285
vn 0.6122 -0.1936 0.7666
vn 0.7414 0.3897 0.5463
vn -0.3598 0.9142 0.1867
vn -0.2745 0.9614 0.0179
vn 0.0000 0.9997 0.0239
vn -0.3985 0.8764 0.2705
vn 0.7443 0.5998 0.2938
vn 0.6427 0.6496 0.4062
vn -0.0001 0.9987 0.0518
vn 0.4558 0.1384 0.8793
vn 0.4281 0.4782 0.7669
vn -0.0198 0.7045 0.7094
vn -0.0741 0.9143 0.3982
vn 0.1443 0.7558 0.6387
vn 0.0541 0.8979 0.4369
vn 0.6857 0.2790 0.6723
vn 0.3322 0.3240 0.8858
vn 0.7783 0.4790 0.4060
vn 0.2528 0.2247 0.9411
vn 0.0000 -0.0901 0.9959
vn -0.4557 0.1383 0.8793
vn 0.2745 0.9614 0.0179
vn -0.7414 0.3897 0.5463
vn -0.4281 0.4782 0.7669
vn -0.2528 0.2247 0.9411
vn 0.0000 0.0795 0.9968
vn -0.6122 -0.1936 0.7666
vn -0.3322 0.3240 0.8858
vn 0.0198 0.7045 0.7094
vn -0.6427 0.6496 0.4062
vn -0.7443 0.5998 0.2938
vn 0.3598 0.9142 0.1867
vn 0.3985 0.8764 0.2705
vn -0.6857 0.2791 0.6723
vn -0.1442 0.7558 0.6387
vn 0.0739 0.9143 0.3982
vn -0.0541 0.8979 0.4369
vn -0.7783 0.4790 0.4060
vn 0.5214 0.3076 -0.7959
vn 0.1213 0.8216 -0.5570
vn 0.3049 0.8352 -0.4577
vn 0.7680 0.5314 -0.3576
vn 0.1729 0.9823 -0.0722
vn -0.0138 0.9998 -0.0145
vn 0.6456 0.7495 0.1466
vn 0.8727 0.4838 0.0658
vn 0.4815 0.7423 -0.4660
vn 0.7724 0.6351 -0.0051
vn 0.6458 0.6324 -0.4279
vn -0.3194 0.9433 0.0901
vn -0.1943 0.9655 0.1735
vn -0.3507 0.8509 0.3912
vn 0.0189 0.9990 0.0398
vn 0.0240 0.9929 -0.1164
vn 0.2967 0.6195 -0.7268
vn 0.1933 0.6920 -0.6955
vn 0.4603 0.5602 -0.6887
vn 0.3719 0.3105 -0.8748
vn 0.3618 0.2863 -0.8872
vn 0.3863 -0.1932 -0.9019
vn 0.1674 -0.0212 -0.9857
vn 0.2082 0.0856 -0.9743
usemtl Corp_01
s 1
f 1/1/1 2/2/2 3/3/3
f 2/2/2 5/4/4 4/5/5
f 1/1/1 5/4/4 2/2/2
f 6/6/6 5/4/4 1/1/1
f 6/6/6 7/7/7 5/4/4
f 8/8/8 7/7/7 6/6/6
f 8/8/8 9/9/9 7/7/7
f 9/9/9 8/8/8 10/10/10
f 9/9/9 10/10/10 11/11/11
f 11/11/11 10/10/10 12/12/12
f 11/11/11 12/12/12 13/13/13
f 13/13/13 12/12/12 14/14/14
f 15/15/15 13/13/13 14/14/14
f 15/15/15 14/14/14 16/16/16
f 4/5/5 5/4/4 7/7/7
f 16/16/16 17/17/17 15/15/15
f 16/16/16 18/18/18 17/17/17
f 19/19/19 17/17/17 18/18/18
f 19/19/19 18/18/18 20/20/20
f 21/21/21 19/19/19 20/20/20
f 21/21/21 20/20/20 22/22/22
f 21/21/21 22/22/22 23/23/23
f 24/24/24 21/21/21 23/23/23
f 4/5/5 21/21/21 24/24/24
f 4/5/5 7/7/7 21/21/21
f 9/9/9 21/21/21 7/7/7
f 9/9/9 19/19/19 21/21/21
f 11/11/11 19/19/19 9/9/9
f 11/11/11 17/17/17 19/19/19
f 15/15/15 17/17/17 11/11/11
f 15/15/15 11/11/11 13/13/13
f 27/25/25 25/26/26 26/27/27
f 28/28/28 27/25/25 26/27/27
f 27/25/25 28/28/28 29/29/29
f 30/30/30 29/29/29 28/28/28
f 30/30/30 31/31/31 29/29/29
f 31/31/31 30/30/30 32/32/32
f 27/25/25 29/29/29 33/33/33
f 33/33/33 34/34/34 27/25/25
f 27/25/25 34/34/34 25/26/26
f 28/28/28 35/35/35 36/36/36
f 28/28/28 26/27/27 35/35/35
f 32/32/32 37/37/37 38/38/38
f 30/30/30 37/37/37 32/32/32
f 30/30/30 36/36/36 37/37/37
f 28/28/28 36/36/36 30/30/30
f 44/39/39 45/40/40 46/41/41
f 46/41/41 45/40/40 14/42/42
f 14/42/42 45/40/40 47/43/43
f 48/44/44 47/43/43 45/40/40
f 48/44/44 45/40/40 44/39/39
f 44/39/39 49/45/45 48/44/44
f 14/42/42 50/46/46 46/41/41
f 51/47/47 46/41/41 50/46/46
f 44/39/39 46/41/41 51/47/47
f 51/47/47 52/48/48 44/39/39
f 44/39/39 52/48/48 49/45/45
f 53/49/49 49/45/45 52/48/48
f 53/49/49 54/50/50 49/45/45
f 55/51/51 54/50/50 53/49/49
f 55/51/51 56/52/52 54/50/50
f 42/53/53 56/52/52 55/51/51
f 57/54/54 42/53/53 55/51/51
f 42/53/53 41/55/55 56/52/52
f 53/49/49 57/54/54 55/51/51
f 57/54/54 53/49/49 31/31/31
f 31/31/31 53/49/49 52/48/48
f 31/31/31 52/48/48 58/56/56
f 51/47/47 58/56/56 52/48/48
f 59/57/57 58/56/56 51/47/47
f 51/47/47 50/46/46 59/57/57
f 60/58/58 59/57/57 50/46/46
f 60/58/58 50/46/46 61/59/59
f 62/60/60 60/58/58 61/59/59
f 60/58/58 62/60/60 63/61/61
f 60/58/58 63/61/61 64/62/62
f 33/33/33 64/62/62 63/61/61
f 65/63/63 64/62/62 33/33/33
f 65/63/63 33/33/33 29/29/29
f 65/63/63 29/29/29 31/31/31
f 65/63/63 31/31/31 58/56/56
f 59/57/57 65/63/63 58/56/56
f 59/57/57 64/62/62 65/63/63
f 59/57/57 60/58/58 64/62/62
f 34/34/34 66/64/64 25/26/26
f 34/34/34 67/65/65 66/64/64
f 67/65/65 34/34/34 33/33/33
f 67/65/65 33/33/33 68/66/66
f 33/33/33 63/61/61 68/66/66
f 68/66/66 63/61/61 8/67/67
f 62/60/60 8/67/67 63/61/61
f 62/60/60 10/68/68 8/67/67
f 10/68/68 62/60/60 69/69/69
f 62/60/60 61/59/59 69/69/69
f 61/59/59 14/42/42 69/69/69
f 14/42/42 61/59/59 50/46/46
f 10/68/68 69/69/69 12/70/70
f 14/42/42 12/70/70 69/69/69
f 67/65/65 43/71/71 66/64/64
f 67/65/65 70/72/72 43/71/71
f 68/66/66 70/72/72 67/65/65
f 70/72/72 68/66/66 6/73/73
f 68/66/66 8/67/67 6/73/73
f 43/71/71 1/74/74 3/75/75
f 43/71/71 70/72/72 1/74/74
f 70/72/72 6/73/73 1/74/74
f 39/76/76 71/77/77 72/78/78
f 57/54/54 31/31/31 32/32/32
f 32/32/32 38/38/38 57/54/54
f 57/54/54 38/38/38 42/53/53
f 40/79/79 39/76/76 72/78/78
f 56/80/80 40/79/79 72/78/78
f 54/81/81 56/80/80 72/78/78
f 54/81/81 72/78/78 71/77/77
f 49/82/82 54/81/81 71/77/77
f 56/80/80 41/83/83 40/79/79
f 49/82/82 71/77/77 73/84/84
f 73/84/84 48/85/85 49/82/82
f 73/84/84 74/86/86 48/85/85
f 74/86/86 47/87/87 48/85/85
f 74/86/86 75/88/88 47/87/87
f 75/88/88 14/89/89 47/87/87
f 14/89/89 75/88/88 76/90/90
f 76/90/90 77/91/91 14/89/89
f 77/91/91 76/90/90 78/92/92
f 77/91/91 78/92/92 18/93/93
f 79/94/94 18/93/93 78/92/92
f 79/94/94 20/95/95 18/93/93
f 80/96/96 20/95/95 79/94/94
f 80/96/96 22/97/97 20/95/95
f 80/96/96 23/98/98 22/97/97
f 81/99/99 23/98/98 80/96/96
f 76/90/90 75/88/88 74/86/86
f 76/90/90 74/86/86 78/92/92
f 74/86/86 79/94/94 78/92/92
f 74/86/86 73/84/84 79/94/94
f 73/84/84 80/96/96 79/94/94
f 73/84/84 71/77/77 80/96/96
f 39/76/76 80/96/96 71/77/77
f 39/76/76 81/99/99 80/96/96
